<svg width="20" height="18" viewBox="0 0 20 18" fill="none" xmlns="http://www.w3.org/2000/svg">
<path d="M1.875 14.9375C1.875 15.4844 2.26562 15.875 2.8125 15.875H19.0625C19.5703 15.875 20 16.3047 20 16.8125C20 17.3594 19.5703 17.75 19.0625 17.75H2.8125C1.25 17.75 0 16.5 0 14.9375V1.1875C0 0.679688 0.390625 0.25 0.9375 0.25C1.44531 0.25 1.875 0.679688 1.875 1.1875V14.9375ZM13.4375 4H17.8125C18.3203 4 18.75 4.42969 18.75 4.9375V9.3125C18.75 9.85938 18.3203 10.25 17.8125 10.25C17.2656 10.25 16.875 9.85938 16.875 9.3125V7.20312L12.5 11.5391C12.1484 11.9297 11.5625 11.9297 11.2109 11.5391L8.08594 8.45312L5.625 10.9141C5.27344 11.3047 4.6875 11.3047 4.33594 10.9141C3.94531 10.5625 3.94531 9.97656 4.33594 9.58594L7.46094 6.46094C7.8125 6.10938 8.39844 6.10938 8.75 6.46094L11.875 9.58594L15.5469 5.875H13.4375C12.8906 5.875 12.5 5.48438 12.5 4.9375C12.5 4.42969 12.8906 4 13.4375 4Z" fill="#778691"/>
</svg>
