<svg xmlns="http://www.w3.org/2000/svg" viewBox="0 0 32 28"><defs><style>.cls-1{fill:#fff;}</style></defs><g id="Layer_2" data-name="Layer 2"><g id="Layer_1-2" data-name="Layer 1"><path class="cls-1" d="M3,23.5A1.44,1.44,0,0,0,4.5,25h26A1.52,1.52,0,0,1,32,26.5,1.48,1.48,0,0,1,30.5,28H4.5A4.48,4.48,0,0,1,0,23.5V1.5A1.48,1.48,0,0,1,1.5,0,1.52,1.52,0,0,1,3,1.5Z"/><path class="cls-1" d="M21.5,6h7A1.52,1.52,0,0,1,30,7.5v7A1.48,1.48,0,0,1,28.5,16,1.44,1.44,0,0,1,27,14.5V11.12l-7,6.94a1.36,1.36,0,0,1-2.06,0l-5-4.94L9,17.06a1.36,1.36,0,0,1-2.06,0,1.42,1.42,0,0,1,0-2.12l5-5a1.47,1.47,0,0,1,2.06,0l5,5L24.88,9H21.5A1.44,1.44,0,0,1,20,7.5,1.48,1.48,0,0,1,21.5,6Z"/></g></g></svg>