<svg xmlns="http://www.w3.org/2000/svg" viewBox="0 0 32 32"><defs><style>.cls-1{fill:#fff;}</style></defs><g id="Layer_2" data-name="Layer 2"><g id="Layer_1-2" data-name="Layer 1"><path class="cls-1" d="M11,5.62a3,3,0,0,0,.31.38s.07,0,.07.06A19.26,19.26,0,0,0,8,6.31V5.5A3.36,3.36,0,0,1,9.31,2.88,7.19,7.19,0,0,1,12,1.31,23.08,23.08,0,0,1,20,0a23,23,0,0,1,7.94,1.31,7.07,7.07,0,0,1,2.68,1.57A3.4,3.4,0,0,1,32,5.5v13a3.55,3.55,0,0,1-1.38,2.69,6.93,6.93,0,0,1-2.68,1.56,18.36,18.36,0,0,1-1.94.63V20.25a5.45,5.45,0,0,0,.88-.31A5.58,5.58,0,0,0,28.62,19a3.46,3.46,0,0,0,.32-.38A.19.19,0,0,0,29,18.5V15.81a8.52,8.52,0,0,1-1.06.44,18.36,18.36,0,0,1-1.94.63V13.75a5.45,5.45,0,0,0,.88-.31,5.58,5.58,0,0,0,1.74-.94,3.46,3.46,0,0,0,.32-.38c0-.06,0-.06.06-.12V9.31a8.52,8.52,0,0,1-1.06.44,19,19,0,0,1-2.88.81A6.24,6.24,0,0,0,24,9.38a9.45,9.45,0,0,0-2.12-1.44,18,18,0,0,0,5-1A5.58,5.58,0,0,0,28.62,6a3.46,3.46,0,0,0,.32-.38c0-.06,0-.06.06-.12l-.06-.06a4.84,4.84,0,0,0-.32-.38,5.58,5.58,0,0,0-1.74-.94A19.21,19.21,0,0,0,20,3a19.33,19.33,0,0,0-6.94,1.12,5.66,5.66,0,0,0-1.75.94,4,4,0,0,0-.31.38l-.06.06C11,5.56,11,5.56,11,5.62ZM0,13.5a3.36,3.36,0,0,1,1.31-2.62A7.19,7.19,0,0,1,4,9.31,23.08,23.08,0,0,1,12,8a23,23,0,0,1,7.94,1.31,7.07,7.07,0,0,1,2.68,1.57A3.4,3.4,0,0,1,24,13.5v13a3.55,3.55,0,0,1-1.38,2.69,6.93,6.93,0,0,1-2.68,1.56A23.09,23.09,0,0,1,12,32a23.17,23.17,0,0,1-8-1.25,7,7,0,0,1-2.69-1.56A3.52,3.52,0,0,1,0,26.5Zm3,.12a3,3,0,0,0,.31.38,5.66,5.66,0,0,0,1.75.94A19.46,19.46,0,0,0,12,16a19.34,19.34,0,0,0,6.88-1.06A5.58,5.58,0,0,0,20.62,14a3.46,3.46,0,0,0,.32-.38c0-.06,0-.06.06-.12l-.06-.06a4.84,4.84,0,0,0-.32-.38,5.58,5.58,0,0,0-1.74-.94A19.21,19.21,0,0,0,12,11a19.33,19.33,0,0,0-6.94,1.12,5.66,5.66,0,0,0-1.75.94,4,4,0,0,0-.31.38c-.06.06-.06.06,0,.06Zm18,3.69a8.52,8.52,0,0,1-1.06.44A23.09,23.09,0,0,1,12,19a23.17,23.17,0,0,1-8-1.25,4.8,4.8,0,0,1-1-.44v2.81a3,3,0,0,0,.31.38,5.66,5.66,0,0,0,1.75.94A19.46,19.46,0,0,0,12,22.5a19.34,19.34,0,0,0,6.88-1.06,5.58,5.58,0,0,0,1.74-.94,3.46,3.46,0,0,0,.32-.38c0-.06,0-.06.06-.12ZM4,24.25a4.8,4.8,0,0,1-1-.44V26.5c-.06,0-.06.06,0,.12a3,3,0,0,0,.31.38,5.66,5.66,0,0,0,1.75.94A19.46,19.46,0,0,0,12,29a19.34,19.34,0,0,0,6.88-1.06A5.58,5.58,0,0,0,20.62,27a3.46,3.46,0,0,0,.32-.38A.19.19,0,0,0,21,26.5V23.81a8.52,8.52,0,0,1-1.06.44,23.21,23.21,0,0,1-8,1.25A23.05,23.05,0,0,1,4,24.25Z"/></g></g></svg>