<svg width="220" height="238" viewBox="0 0 220 238" fill="none" xmlns="http://www.w3.org/2000/svg">
<path d="M34.7662 4.58155C43.2186 4.58155 57.2526 10.0617 74.7155 18.2423C92.1783 26.5023 117.216 40.4014 132.606 49.4556C147.996 58.5893 173.991 75.0299 189.3 86.2286C204.531 97.4272 215.295 104.734 215.295 118.792C215.295 132.85 204.929 139.839 189.3 151.435C173.672 162.951 148.075 179.154 132.606 188.208C117.137 197.342 92.0189 211.241 74.7155 219.421C57.3324 227.602 43.2983 233.082 34.7662 233.082C27.6694 233.638 20.7322 230.699 16.2668 225.14C11.6419 218.071 8.85103 209.97 7.9739 201.63C6.21964 189.638 5.26281 177.565 5.0236 165.413C4.54516 151.514 4.54512 118.792 4.54512 118.792C4.54512 118.792 4.54516 86.1491 5.0236 72.2501C5.26281 60.1778 6.21964 48.026 7.9739 36.0331C8.85103 27.6937 11.6419 19.5925 16.2668 12.5239C20.6524 6.96424 27.5897 4.02558 34.7662 4.58155ZM34.7662 0.0544253C26.1544 -0.501537 17.8616 3.23135 12.5988 9.9029C7.49548 17.5275 4.38567 26.3435 3.50854 35.3977C1.67454 47.5495 0.717693 59.8601 0.478476 72.1707C4.13792e-05 85.9903 0 118.554 0 118.871C0 119.189 4.13792e-05 151.753 0.478476 165.652C0.717693 177.962 1.75428 190.194 3.50854 202.425C4.4654 211.558 7.57524 220.295 12.6785 227.92C17.9413 234.67 26.2342 238.403 34.846 237.768C43.2186 237.768 55.7376 233.559 76.7887 223.631C93.5339 215.688 118.094 202.186 135.078 192.259C151.185 182.728 177.1 166.287 192.171 155.168L194.244 153.659C209.155 142.698 220 134.756 220 118.951C220 103.146 209.155 95.2034 194.244 84.243L192.171 82.7339C177.1 71.6147 151.345 55.0153 135.078 45.6433C118.094 35.7154 93.5339 22.1341 76.7887 14.2712C55.7376 4.34328 43.2186 0.133848 34.846 0.133848" fill="#00205B"/>
<path d="M192.432 101.081H188C185.946 101.081 184.324 102.396 184.324 103.876V133.962C184.324 135.524 185.946 136.757 188 136.757H192.432C194.487 136.757 196.216 135.524 196.216 133.962V103.958C196.216 102.396 194.487 101.163 192.432 101.163" fill="#00205B"/>
<path d="M92.9391 95.1351H97.3317C99.3672 95.1351 101.081 93.904 101.081 92.3445V44.4122C101.081 42.8527 99.3672 41.6216 97.3317 41.6216H92.9391C90.9036 41.6216 89.1895 42.8527 89.1895 44.4122V92.3445C89.1895 93.904 90.9036 95.1351 92.9391 95.1351Z" fill="#00205B"/>
<path d="M123.027 172.487H120.811C119.784 172.487 118.919 173.305 118.919 174.342V176.524C118.919 177.56 119.784 178.378 120.811 178.378H123.027C124.054 178.378 124.865 177.56 124.865 176.524V174.287C124.865 173.251 124.054 172.432 123.027 172.432" fill="#00205B"/>
<path d="M20.8918 77.2973H61.6959C63.3077 77.2973 64.5802 75.9821 64.5802 74.5024V59.4595H80.2741C81.8859 59.4595 83.1584 58.2264 83.2432 56.7468V35.5387C83.2432 33.9768 81.8859 32.7438 80.2741 32.7438H76.796C75.1842 32.7438 73.8269 33.9768 73.8269 35.5387V50.5816H64.4954V26.5787C64.4954 25.0168 63.2229 23.7838 61.6111 23.7838H39.47C37.8582 23.7838 36.5857 25.0168 36.5857 26.5787V56.7468C36.5857 58.3086 37.8582 59.5417 39.47 59.5417H55.1639V68.5017H27.1693V35.7853C27.1693 34.2234 25.812 32.9904 24.2002 32.9904H20.8069C19.1951 32.9904 17.8378 34.2234 17.8378 35.7853V74.5024C17.8378 76.0643 19.1951 77.2973 20.8069 77.2973M54.9942 50.4994H45.6627V32.6616H54.9942V50.4994Z" fill="#00205B"/>
<path d="M175.46 95.1351H172.216C170.676 95.1351 169.379 96.3207 169.379 97.8224V138.052H154.379C152.838 138.052 151.541 139.237 151.541 140.739V155.203H142.622V140.739C142.622 139.237 141.325 138.052 139.784 138.052H109.703C108.162 138.052 106.946 139.316 106.946 140.739V143.9C106.946 145.402 108.162 146.588 109.703 146.588H133.865V155.203H98.1895V129.437H122.108C123.649 129.437 124.865 128.172 124.865 126.75V123.588C124.865 122.086 123.649 120.901 122.108 120.901H92.0273C90.4867 120.901 89.1895 122.086 89.1895 123.588V161.13C89.1895 162.632 90.4867 163.817 92.0273 163.817H133.784V169.745C133.784 171.247 135 172.432 136.541 172.432H139.865C141.406 172.432 142.622 171.247 142.703 169.824V163.897H157.703C159.243 163.897 160.541 162.711 160.541 161.209V146.746H175.541C177.081 146.746 178.379 145.56 178.379 144.058V97.9014C178.379 96.3997 177.081 95.2142 175.541 95.2142" fill="#00205B"/>
<path d="M104.108 172.432H82.9459C81.4054 172.432 80.1892 173.527 80.1892 174.913V188.337H26.6757V180.385H68.5135C70.054 180.385 71.3513 179.29 71.3513 177.904V174.986C71.3513 173.6 70.1351 172.432 68.5946 172.432H20.5946C19.0541 172.432 17.8378 173.527 17.8378 174.913V193.736C17.8378 195.122 19.0541 196.216 20.5946 196.216H86.3514C87.8919 196.216 89.1081 195.122 89.1892 193.809V180.385H98.1081V185.856C98.1081 187.243 99.3243 188.337 100.865 188.337H104.189C105.73 188.337 107.027 187.243 107.027 185.856V174.986C107.027 173.6 105.73 172.505 104.189 172.505" fill="#00205B"/>
<path d="M33.7838 208.108H31.6757C30.6487 208.108 29.7838 208.912 29.7297 209.929V212.179C29.7297 213.197 30.5946 214.054 31.6757 214.054H33.7838C34.8108 214.054 35.6757 213.197 35.6757 212.179V210.09C35.6757 209.072 34.8108 208.215 33.7838 208.215" fill="#00205B"/>
<path d="M51.6043 208.108H49.4768C48.4404 208.108 47.5676 208.965 47.5676 209.983V212.179C47.5676 213.197 48.4404 214.054 49.4768 214.054H51.6043C52.6407 214.054 53.5135 213.197 53.5135 212.179V210.09C53.5135 209.072 52.6407 208.215 51.6043 208.215" fill="#00205B"/>
<path d="M21.5473 154.595H25.8021C27.9841 154.595 29.7297 155.475 29.7297 156.522V158.614C29.7297 159.66 27.9841 160.541 25.9112 160.541H21.6563C19.5834 160.541 17.8378 159.66 17.8378 158.614V156.522C17.8378 155.475 19.4743 154.595 21.6563 154.595H21.5473Z" fill="#00205B"/>
<path d="M39.4594 154.649H43.6757C45.8378 154.649 47.5676 155.522 47.5676 156.558V158.631C47.5676 159.722 45.8378 160.541 43.6757 160.541H39.4594C37.4054 160.541 35.6757 159.668 35.6757 158.631V156.558C35.6757 155.522 37.2973 154.649 39.3513 154.595C39.3513 154.595 39.3513 154.595 39.4594 154.595V154.649Z" fill="#00205B"/>
<path d="M53.5135 154.868V157.858C53.5135 159.314 54.9549 160.541 56.6667 160.541H80.0901C81.8018 160.541 83.2432 159.391 83.2432 157.934V121.525C83.2432 120.069 81.8018 118.919 80.0901 118.919H76.3964C74.6847 118.919 73.2433 120.069 73.2433 121.525V152.262H56.6667C54.9549 152.262 53.5135 153.489 53.5135 154.945" fill="#00205B"/>
<path d="M134.594 118.919C132.54 118.919 130.811 120.665 130.811 122.737V126.992C130.811 129.065 132.54 130.811 134.594 130.811H138.811C140.973 130.811 142.702 129.065 142.702 126.992V122.737C142.702 120.555 140.973 118.919 138.811 118.919H134.594Z" fill="#00205B"/>
<path d="M126.794 65.4054H128.883C129.954 65.4054 130.811 64.5245 130.811 63.4785V61.3864C130.811 60.2853 129.954 59.4595 128.883 59.4595H126.794C125.722 59.4595 124.865 60.3404 124.865 61.3864V63.4785C124.865 64.5796 125.722 65.4054 126.794 65.4054Z" fill="#00205B"/>
<path d="M79.3513 65.4054H75.1351C73.0811 65.4054 71.3513 67.1672 71.3513 69.2593V73.4434C71.3513 75.5355 73.0811 77.2973 75.1351 77.2973H79.3513C81.4054 77.2973 83.1351 75.6456 83.2432 73.5536V69.2593C83.2432 67.1672 81.5135 65.4054 79.3513 65.4054Z" fill="#00205B"/>
<path d="M61.696 101.081H57.4411C55.2591 101.081 53.5135 102.843 53.5135 104.935V109.119C53.5135 111.211 55.2592 112.973 57.3321 112.973H61.5869C63.6598 112.973 65.4054 111.211 65.4054 109.119V105.045C65.4054 102.953 63.7689 101.191 61.5869 101.191" fill="#00205B"/>
<path d="M156.865 119.028H152.541C150.378 119.028 148.649 120.774 148.649 122.847V126.992C148.649 129.174 150.378 130.811 152.541 130.811H156.757C158.811 130.811 160.541 129.065 160.541 126.992V122.737C160.541 120.665 158.919 118.919 156.757 118.919" fill="#00205B"/>
<path d="M20.6757 148.564H59.6756C61.2162 148.564 62.4324 147.208 62.4324 145.683V123.823C62.4324 122.213 61.2162 120.942 59.6756 120.942H44.6756V93.3209H71.4324V108.742C71.4324 110.351 72.7297 111.707 74.2703 111.707H157.784C159.324 111.707 160.541 110.436 160.541 108.826V77.8156C160.541 76.2058 159.324 74.9349 157.784 74.9349H136.622C135.081 74.9349 133.784 76.2058 133.784 77.8156V84.1703H115.946V50.4483C115.946 48.8385 114.649 47.5676 113.108 47.5676H109.784C108.243 47.5676 107.027 48.9232 107.027 50.4483V102.811H80.2702V87.3052C80.2702 85.6954 79.0541 84.4245 77.5135 84.4245H38.5135C36.9729 84.4245 35.7567 85.6107 35.7567 87.2205V127.636C35.7567 129.246 36.9729 130.517 38.5135 130.517H53.5135V139.498H26.7567V87.1358C26.7567 85.5259 25.4595 84.255 23.9189 84.255H20.6757C19.1351 84.255 17.9189 85.5259 17.8378 87.051V145.768C17.8378 147.378 19.1351 148.649 20.6757 148.649M115.946 93.4057H142.703V84.1703H151.622V102.556H115.946V93.3209V93.4057Z" fill="#00205B"/>
</svg>
