<svg width="18" height="24" viewBox="0 0 18 24" fill="none" xmlns="http://www.w3.org/2000/svg">
<path d="M15 21.75C15.375 21.75 15.75 21.4219 15.75 21V19.5H18V21C18 22.6875 16.6406 24 15 24H3C1.3125 24 0 22.6875 0 21V19.5H2.25V21C2.25 21.4219 2.57812 21.75 3 21.75H15ZM12 7.5C11.1562 7.5 10.5 6.84375 10.5 6V2.25H3C2.57812 2.25 2.25 2.625 2.25 3V9H0V3C0 1.35938 1.3125 0 3 0H10.7344C11.5312 0 12.2812 0.328125 12.8438 0.890625L17.1094 5.15625C17.6719 5.71875 18 6.46875 18 7.26562V9H15.75V7.5H12ZM4.125 10.5C5.53125 10.5 6.75 11.7188 6.75 13.125C6.75 14.5781 5.53125 15.75 4.125 15.75H3.75V17.25C3.75 17.6719 3.375 18 3 18C2.57812 18 2.25 17.6719 2.25 17.25V11.25C2.25 10.875 2.57812 10.5 3 10.5H4.125ZM5.25 13.125C5.25 12.5156 4.73438 12 4.125 12H3.75V14.25H4.125C4.73438 14.25 5.25 13.7812 5.25 13.125ZM7.5 11.25C7.5 10.875 7.82812 10.5 8.25 10.5H9.375C10.5938 10.5 11.625 11.5312 11.625 12.75V15.75C11.625 17.0156 10.5938 18 9.375 18H8.25C7.82812 18 7.5 17.6719 7.5 17.25V11.25ZM9 16.5H9.375C9.75 16.5 10.125 16.1719 10.125 15.75V12.75C10.125 12.375 9.75 12 9.375 12H9V16.5ZM15.75 10.5C16.125 10.5 16.5 10.875 16.5 11.25C16.5 11.6719 16.125 12 15.75 12H14.25V13.5H15.75C16.125 13.5 16.5 13.875 16.5 14.25C16.5 14.6719 16.125 15 15.75 15H14.25V17.25C14.25 17.6719 13.875 18 13.5 18C13.0781 18 12.75 17.6719 12.75 17.25V11.25C12.75 10.875 13.0781 10.5 13.5 10.5H15.75Z" fill="#00205B"/>
</svg>
