<svg width="18" height="25" viewBox="0 0 18 25" fill="none" xmlns="http://www.w3.org/2000/svg">
<path d="M12.75 9.83789C12.75 11.9473 11.0625 13.5879 9 13.5879C6.89062 13.5879 5.25 11.9473 5.25 9.83789C5.25 7.77539 6.89062 6.08789 9 6.08789C11.0625 6.08789 12.75 7.77539 12.75 9.83789ZM9 8.33789C8.15625 8.33789 7.5 9.04102 7.5 9.83789C7.5 10.6816 8.15625 11.3379 9 11.3379C9.79688 11.3379 10.5 10.6816 10.5 9.83789C10.5 9.04102 9.79688 8.33789 9 8.33789ZM18 9.83789C18 13.9629 12.5156 21.2285 10.0781 24.2754C9.51562 24.9785 8.4375 24.9785 7.875 24.2754C5.4375 21.2285 0 13.9629 0 9.83789C0 4.86914 3.98438 0.837891 9 0.837891C13.9688 0.837891 18 4.86914 18 9.83789ZM9 3.08789C5.25 3.08789 2.25 6.13477 2.25 9.83789C2.25 10.4473 2.4375 11.3379 2.95312 12.5566C3.42188 13.6816 4.125 14.9941 4.92188 16.3066C6.28125 18.4629 7.82812 20.5254 9 22.0254C10.125 20.5254 11.6719 18.4629 13.0312 16.3066C13.8281 14.9941 14.5312 13.6816 15 12.5566C15.5156 11.3379 15.75 10.4473 15.75 9.83789C15.75 6.13477 12.7031 3.08789 9 3.08789Z" fill="white"/>
</svg>
