<svg width="30" height="25" viewBox="0 0 30 25" fill="none" xmlns="http://www.w3.org/2000/svg">
<path d="M19.5 3.83789V12.8379C19.5 14.5254 18.1406 15.8379 16.5 15.8379H10.5L5.39062 18.7441C5.25 18.8379 5.15625 18.8379 5.0625 18.8379C4.73438 18.8379 4.5 18.6504 4.5 18.2754V15.8379H3C1.3125 15.8379 0 14.5254 0 12.8379V3.83789C0 2.19727 1.3125 0.837891 3 0.837891H16.5C18.1406 0.837891 19.5 2.19727 19.5 3.83789ZM6.75 15.416L9.89062 13.5879H16.5C16.875 13.5879 17.25 13.2598 17.25 12.8379V3.83789C17.25 3.46289 16.875 3.08789 16.5 3.08789H3C2.57812 3.08789 2.25 3.46289 2.25 3.83789V12.8379C2.25 13.2598 2.57812 13.5879 3 13.5879H6.75V15.416ZM12 18.8379V17.3379H14.25V18.8379C14.25 19.2598 14.5781 19.5879 15 19.5879H20.0625L23.25 21.416V19.5879H27C27.375 19.5879 27.75 19.2598 27.75 18.8379V9.83789C27.75 9.46289 27.375 9.08789 27 9.08789H21V6.83789H27C28.6406 6.83789 30 8.19727 30 9.83789V18.8379C30 20.5254 28.6406 21.8379 27 21.8379H25.5V24.2754C25.5 24.6504 25.2188 24.8379 24.9375 24.8379C24.7969 24.8379 24.7031 24.8379 24.5625 24.7441L19.5 21.8379H15C13.3125 21.8379 12 20.5254 12 18.8379Z" fill="white"/>
</svg>
