<svg width="25" height="25" viewBox="0 0 25 25" fill="none" xmlns="http://www.w3.org/2000/svg">
<path d="M22.5 15.8848C23.5781 16.3535 24.1875 17.5254 23.8594 18.6973L22.875 22.9629C22.6875 24.0879 21.7031 24.8379 20.5312 24.8379C9.1875 24.8379 0 15.6504 0 4.30664C0 3.13477 0.75 2.15039 1.875 1.91602L6.14062 0.931641C7.3125 0.650391 8.48438 1.25977 8.95312 2.33789L10.9688 7.02539C11.3906 8.00977 11.0625 9.18164 10.2656 9.88477L8.67188 11.1504C9.89062 13.2129 11.625 14.9473 13.7344 16.166L15 14.6191C15.7031 13.7754 16.875 13.4473 17.9062 13.916L22.5 15.8848ZM21.7031 18.1816C21.75 18.0879 21.7031 17.9941 21.6094 17.9004L17.0156 15.9316C16.9219 15.8848 16.8281 15.9316 16.7812 15.9785L14.9062 18.2754C14.5781 18.6973 13.9688 18.791 13.5 18.5566C10.3594 17.0098 7.78125 14.4316 6.23438 11.291C6 10.8223 6.14062 10.2598 6.51562 9.93164L8.8125 8.05664C8.90625 8.00977 8.90625 7.91602 8.85938 7.82227L6.89062 3.22852C6.84375 3.18164 6.79688 3.08789 6.70312 3.08789L6.65625 3.13477L2.39062 4.11914C2.29688 4.11914 2.20312 4.21289 2.20312 4.30664C2.20312 14.3848 10.4531 22.5879 20.5312 22.5879C20.625 22.5879 20.7188 22.4941 20.7188 22.4473L21.7031 18.1816Z" fill="white"/>
</svg>
