<svg xmlns="http://www.w3.org/2000/svg" viewBox="0 0 30 31.87"><defs><style>.cls-1{fill:#fff;}</style></defs><g id="Layer_2" data-name="Layer 2"><g id="Layer_1-2" data-name="Layer 1"><path class="cls-1" d="M15.82.19l11.75,5A4,4,0,0,1,30,8.75C29.94,15,27.38,26.31,16.63,31.5a3.84,3.84,0,0,1-3.31,0C2.57,26.31,0,15,0,8.75A3.81,3.81,0,0,1,2.38,5.19l11.75-5A3.27,3.27,0,0,1,15,0,3.48,3.48,0,0,1,15.82.19ZM15,3.12,3.57,7.94A.83.83,0,0,0,3,8.75c0,5.75,2.38,15.56,11.63,20a.66.66,0,0,0,.69,0C24.57,24.31,26.94,14.5,27,8.75a1,1,0,0,0-.62-.81Z"/></g></g></svg>