<svg width="18" height="21" viewBox="0 0 18 21" fill="none" xmlns="http://www.w3.org/2000/svg">
<path d="M6.1875 3.5H11.8125V1.9375C11.8125 1.42969 12.2031 1 12.75 1C13.2578 1 13.6875 1.42969 13.6875 1.9375V3.5H15.25C16.6172 3.5 17.75 4.63281 17.75 6V18.5C17.75 19.9062 16.6172 21 15.25 21H2.75C1.34375 21 0.25 19.9062 0.25 18.5V6C0.25 4.63281 1.34375 3.5 2.75 3.5H4.3125V1.9375C4.3125 1.42969 4.70312 1 5.25 1C5.75781 1 6.1875 1.42969 6.1875 1.9375V3.5ZM2.125 18.5C2.125 18.8516 2.39844 19.125 2.75 19.125H15.25C15.5625 19.125 15.875 18.8516 15.875 18.5V8.5H2.125V18.5Z" fill="#778691"/>
</svg>
