<svg width="18" height="24" viewBox="0 0 18 24" fill="none" xmlns="http://www.w3.org/2000/svg">
<path d="M17.1094 4.40625C17.6719 4.96875 18 5.71875 18 6.51562V21C18 22.6875 16.6406 24 15 24H3C1.3125 24 0 22.6875 0 21V3C0 1.35938 1.3125 0 3 0H11.4844C12.2812 0 13.0312 0.328125 13.5938 0.890625L17.1094 4.40625ZM15.75 21H15.7031V7.5H12C11.1562 7.5 10.5 6.84375 10.5 6V2.29688H3C2.57812 2.29688 2.25 2.625 2.25 3.04688V21C2.25 21.4219 2.57812 21.75 3 21.75H3.04688C3.42188 19.6406 5.25 18 7.5 18H10.5C12.7031 18 14.5312 19.6406 14.9062 21.75H15C15.375 21.75 15.75 21.4219 15.75 21ZM9 10.5C10.6406 10.5 12 11.8594 12 13.5C12 15.1875 10.6406 16.5 9 16.5C7.3125 16.5 6 15.1875 6 13.5C6 11.8594 7.3125 10.5 9 10.5Z" fill="white"/>
</svg>
