<svg width="26" height="24" viewBox="0 0 26 24" fill="none" xmlns="http://www.w3.org/2000/svg">
<path d="M12.3906 0.140625C12.7656 0 13.1875 0 13.5625 0.140625L24.0625 4.64062C24.7188 4.92188 25.0938 5.625 24.9531 6.32812C24.8125 7.03125 24.2031 7.5 23.5 7.5V7.875C23.5 8.53125 22.9844 9 22.375 9H3.625C2.96875 9 2.5 8.53125 2.5 7.875V7.5C1.75 7.5 1.14062 7.03125 1 6.32812C0.859375 5.625 1.23438 4.92188 1.89062 4.64062L12.3906 0.140625ZM7 10.5V19.5H8.875V10.5H11.875V19.5H14.125V10.5H17.125V19.5H19V10.5H21.9531V19.7344C22 19.7344 22.0469 19.7344 22.0469 19.7812L24.2969 21.2812C24.8594 21.6562 25.0938 22.3125 24.9062 22.9688C24.7188 23.5781 24.1562 24 23.5 24H2.5C1.79688 24 1.23438 23.5781 1.04688 22.9688C0.859375 22.3125 1.09375 21.6562 1.65625 21.2812L3.90625 19.7812C3.90625 19.7344 3.95312 19.7344 4 19.7344V10.5H7ZM13 6C13.7969 6 14.5 5.34375 14.5 4.5C14.5 3.70312 13.7969 3 13 3C12.1562 3 11.5 3.70312 11.5 4.5C11.5 5.34375 12.1562 6 13 6Z" fill="white"/>
</svg>
